<svg xmlns="http://www.w3.org/2000/svg" viewBox="0 0 96 96" role="img" aria-label="BR monogram">
  <rect width="96" height="96" rx="24" fill="#111111" />
  <path d="M26 21h20c12.7 0 19 6.1 19 15.2 0 6.4-3.4 10.7-8.9 12.7 7 1.7 11.2 6.6 11.2 14 0 10.2-7.4 16-20.3 16H26V21Zm18.5 24.1c6.9 0 10.6-2.5 10.6-7.5 0-5.3-3.8-7.8-10.4-7.8H36.8v15.3h7.7Zm1.7 25c7.7 0 11.7-2.6 11.7-8.6 0-5.7-4-8.3-12.5-8.3h-8.6v16.9h9.4Z" fill="#f4efe3" />
  <path d="M51.8 21H72v8.8H61.7v14.6h9c12 0 19.3 6.1 19.3 17 0 11.2-7.9 17.6-21.5 17.6H51.8V21Zm15.5 49.3c8.2 0 12.6-2.8 12.6-8.9 0-5.9-4.4-8.4-13.2-8.4h-5.1v17.3h5.7Z" fill="#9f7651" />
</svg>
